/* XPM */
static char *result[] = {
/* columns rows colors chars-per-pixel */
"200 41 71 1 ",
"  c black",
". c #060606",
"X c #070707",
"o c #0C0103",
"O c #0F0204",
"+ c #100204",
"@ c #200708",
"# c #21070A",
"$ c #2E050C",
"% c #30050C",
"& c #350A0F",
"* c #3E0710",
"= c #350A10",
"- c gray23",
"; c #3C3C3C",
": c #3E3E3E",
"> c #400710",
", c #4A0813",
"< c #4C0914",
"1 c #4C0F16",
"2 c #4D0F17",
"3 c #5B0917",
"4 c #511018",
"5 c #521018",
"6 c #571119",
"7 c #5D121B",
"8 c #5E121C",
"9 c #64141E",
"0 c #731622",
"q c #403F3F",
"w c #434343",
"e c #444444",
"r c gray31",
"t c #505050",
"y c #535353",
"u c gray33",
"i c #5B5052",
"p c #5C5152",
"a c #5C5153",
"s c #5D5254",
"d c #971026",
"f c #991027",
"g c #A21129",
"h c #AC152D",
"j c #DA1738",
"k c #DB1738",
"l c #E5183A",
"z c #E8183B",
"x c #EA1A3C",
"c c #ED1D3E",
"v c #D92B40",
"b c #EB2E45",
"n c #EC2E45",
"m c #EE2F46",
"M c #F72946",
"N c #F72A46",
"B c #F82A46",
"V c #F92C47",
"C c #FD304A",
"Z c #FC314A",
"A c #FE314B",
"S c #FF324B",
"D c #FF3A52",
"F c #FF3B53",
"G c #FF6475",
"H c #FD707E",
"J c #FF717F",
"K c #FFC4C4",
"L c #FFE8E2",
"P c #FFEAE4",
"I c None",
/* pixels */
"IIIII         IIIIIIIIIIIIII         IIIIIIIIIIIIIIIIIIIIIIIIIIIIIIIIIIIIIIIIIIIIIIIIIIIIIIIIIIIIIIIIIIIIIIIIIIIIIIIIIIIIIIIIIIIIIIIIIIIIIIIIIIIIIIIIIIIIIIIIIIIIIIIIIIIIIIIIIIIIIIIIIIIIIIIIIIIIIIIIIII",
"IIIII         IIIIIIIIIIIIII         IIIIIIIIIIIIIIIIIIIIIIIIIIIIIIIIIIIIIIIIIIIIIIIIIIIIIIIIIIIIIIIIIIIIIIIIIIIIIIIIIIIIIIIIIIIIIIIIIIIIIIIIIIIIIIIIIIIIIIIIIIIIIIIIIIIIIIIIIIIIIIIIIIIIIIIIIIIIIIIIIII",
"IIIII         IIIIIIIIIIIIII         IIIIIIIIIIIIIIIIIIIIIIIIIIIIIIIIIIIIIIIIIIIIIIIIIIIIIIIIIIIIIIIIIIIIIIIIIIIIIIIIIIIIIIIIIIIIIIIIIIIIIIIIIIIIIIIIIIIIIIIIIIIIIIIIIIIIIIIIIIIIIIIIIIIIIIIIIIIIIIIIIII",
"IIIII         IIIIIIIIIIIIII         IIIIIIIIIIIIIIIIIIIIIIIIIIIIIIIIIIIIIIIIIIIIIIIIIIIIIIIIIIIIIIIIIIIIIIIIIIIIIIIIIIIIIIIIIIIIIIIIIIIIIIIIIIIIIIIIIIIIIIIIIIIIIIIIIIIIIIIIIIIIIIIIIIIIIIIIIIIIIIIIIII",
"IIII@999999998IIIIIIIIIIIII#999999997IIIIIIIIIIIIIIIIIIIIIIIIIIIIIIIIIIIIIIIIIIIIIIIIIIIIIIIIIIIIIIIIIIIIIIIIIIIIIIIIIIIIIIIIIIIIIIIIIIIIIIIIIIIIIIIIIIIIIIIIIIIIIIIIIIIIIIIIIIIIIIIIIIIIIIIIIIIIIIIIIII",
"    5SSSSSSSSm    IIIII    6SSSSSSSSb                                                                                                                                                              IIIII",
"    5SSSSSSSSm    IIIII    6SSSSSSSSn                                                                                                                                                              IIIII",
"    5SSSSSSSSm    IIIII    6SSSSSSSSn                                                                                                                                                              IIIII",
"    5SSSSSSSSm    IIIII    6SSSSSSSSn                                                                                                                                                              IIIII",
"    5SSSSSSSSSZZZZ1    ZZZZHLLLLFSSSb    -yyyyyyyyyyyyyyyyyyyyyyyyyyyyyyyyyyyyyyyyyyyyyyyyyyyyyyyyyyyyyyyyyyyyyyyyyyyyyyyyyyyyyyyyyyyyyyyyyyyyyyyyyyyyyyyyyyyypZZZZZZZZZZZZZZZZZZZZZZZZZZZZZZZZZZZZ4    ",
"    5SSSSSSSSSSSSS2    SSSSJPPPPFSSSn    ;uuuuuuuuuuuuuuuuuuuuuuuuuuuuuuuuuuuuuuuuuuuuuuuuuuuuuuuuuuuuuuuuuuuuuuuuuuuuuuuuuuuuuuuuuuuuuuuuuuuuuuuuuuuuuuuuuuuusSSSSSSSSSSSSSSSSSSSSSSSSSSSSSSSSSSSS5    ",
"    5SSSSSSSSSSSSS2    SSSSJPPPPFSSSn    ;uuuuuuuuuuuuuuuuuuuuuuuuuuuuuuuuuuuuuuuuuuuuuuuuuuuuuuuuuuuuuuuuuuuuuuuuuuuuuuuuuuuuuuuuuuuuuuuuuuuuuuuuuuuuuuuuuuuusSSSSSSSSSSSSSSSSSSSSSSSSSSSSSSSSSSSS5    ",
"    5SSSSSSSSSSSSS2    SSSSJPPPPFSSSb    ;uuuuuuuuuuuuuuuuuuuuuuuuuuuuuuuuuuuuuuuuuuuuuuuuuuuuuuuuuuuuuuuuuuuuuuuuuuuuuuuuuuuuuuuuuuuuuuuuuuuuuuuuuuuuuuuuuuuusSSSSSSSSSSSSSSSSSSSSSSSSSSSSSSSSSSSS5    ",
"    5SSSSSSSSSSSSS0=&==SSSSGKKKKDSSSb    ;uuuuuuuuuuuuuuuuuuuuuuuuuuuuuuuuuuuuuuuuuuuuuuuuuuuuuuuuuuuuuuuuuuuuuuuuuuuuuuuuuuuuuuuuuuuuuuuuuuuuuuuuuuuuuuuuuuuusSSSSSSSSSSSSSSSSSSSSSSSSSSSSSSSSSSSS5    ",
"    5SSSSSSSSSSSSSSSSSSSSSSSSSSSSSSSn    ;uuuuuuuuuuuuuuuuuuuuuuuuuuuuuuuuuuuuuuuuuuuuuuuuuuuuuuuuuuuuuuuuuuuuuuuuuuuuuuuuuuuuuuuuuuuuuuuuuuuuuuuuuuuuuuuuuuuusSSSSSSSSSSSSSSSSSSSSSSSSSSSSSSSSSSSS5    ",
"    5SSSSSSSSSSSSSSSSSSSSSSSSSSSSSSSn    ;uuuuuuuuuuuuuuuuuuuuuuuuuuuuuuuuuuuuuuuuuuuuuuuuuuuuuuuuuuuuuuuuuuuuuuuuuuuuuuuuuuuuuuuuuuuuuuuuuuuuuuuuuuuuuuuuuuuusSSSSSSSSSSSSSSSSSSSSSSSSSSSSSSSSSSSS5    ",
"    5SSSSSSSSSSSSSSSSSSSSSSSSSSSSSSSb    ;uuuuuuuuuuuuuuuuuuuuuuuuuuuuuuuuuuuuuuuuuuuuuuuuuuuuuuuuuuuuuuuuuuuuuuuuuuuuuuuuuuuuuuuuuuuuuuuuuuuuuuuuuuuuuuuuuuuusSSSSSSSSSSSSSSSSSSSSSSSSSSSSSSSSSSSS5    ",
"    5SSSSSSSSSSSSSSSSSSSSSSSSSSSSSSSn    ;uuuuuuuuuuuuuuuuuuuuuuuuuuuuuuuuuuuuuuuuuuuuuuuuuuuuuuuuuuuuuuuuuuuuuuuuuuuuuuuuuuuuuuuuuuuuuuuuuuuuuuuuuuuuuuuuuuuusSSSSSSSSSSSSSSSSSSSSSSSSSSSSSSSSSSSS5    ",
"    5SSSSSSSSSSSSSSSSSSSSSSSSSSSSSSSn    ;uuuuuuuuuuuuuuuuuuuuuuuuuuuuuuuuuuuuuuuuuuuuuuuuuuuuuuuuuuuuuuuuuuuuuuuuuuuuuuuuuuuuuuuuuuuuuuuuuuuuuuuuuuuuuuuuuuuusSSSSSSSSSSSSSSSSSSSSSSSSSSSSSSSSSSSS5    ",
"    5SSSSSSSSSSSSSSSSSSSSSSSSSSSSSSSn    ;uuuuuuuuuuuuuuuuuuuuuuuuuuuuuuuuuuuuuuuuuuuuuuuuuuuuuuuuuuuuuuuuuuuuuuuuuuuuuuuuuuuuuuuuuuuuuuuuuuuuuuuuuuuuuuuuuuuusSSSSSSSSSSSSSSSSSSSSSSSSSSSSSSSSSSSS5    ",
"    5SSSSSSSSSSSSSSSSSSSSSSSSSSSSSSSb    ;uuuuuuuuuuuuuuuuuuuuuuuuuuuuuuuuuuuuuuuuuuuuuuuuuuuuuuuuuuuuuuuuuuuuuuuuuuuuuuuuuuuuuuuuuuuuuuuuuuuuuuuuuuuuuuuuuuuusSSSSSSSSSSSSSSSSSSSSSSSSSSSSSSSSSSSS5    ",
"    5SSSSSSSSSSSSSSSSSSSSSSSSSSSSSSSn    ;uuuuuuuuuuuuuuuuuuuuuuuuuuuuuuuuuuuuuuuuuuuuuuuuuuuuuuuuuuuuuuuuuuuuuuuuuuuuuuuuuuuuuuuuuuuuuuuuuuuuuuuuuuuuuuuuuuuusSSSSSSSSSSSSSSSSSSSSSSSSSSSSSSSSSSSS5    ",
"    1bbbbCCCCCSSSSSSSSSSSSSACCCCnbbbv.X..:uuuuuuuuuuuuuuuuuuuuuuuuuuuuuuuuuuuuuuuuuuuuuuuuuuuuuuuuuuuuuuuuuuuuuuuuuuuuuuuuuuuuuuuuuuuuuuuuuuuuuuuuuuuuuuuuuuuusSSSSSSSSSSSSSSSSSSSSSSSSSSSSSSSSSSSS5    ",
"IIIII    jzzzxSSSSSSSSSSSSSMzzzzo   .uuuuuuuuuuuuuuuuuuuuuuuuuuuuuuuuuuuuuuuuuuuuuuuuuuuuuuuuuuuuuuuuuuuuuuuuuuuuuuuuuuuuuuuuuuuuuuuuuuuuuuuuuuuuuuuuuuuuuuuuusSSSSSSSSSSSSSSSSSSSSSSSSSSSSSSSSSSSS5    ",
"IIIII    jzzzxSSSSSSSSSSSSSMzzzzo   .uuuuuuuuuuuuuuuuuuuuuuuuuuuuuuuuuuuuuuuuuuuuuuuuuuuuuuuuuuuuuuuuuuuuuuuuuuuuuuuuuuuuuuuuuuuuuuuuuuuuuuuuuuuuuuuuuuuuuuuuusSSSSSSSSSSSSSSSSSSSSSSSSSSSSSSSSSSSS5    ",
"IIIII    jzzzxSSSSSSSSSSSSSMzzzzo   .uuuuuuuuuuuuuuuuuuuuuuuuuuuuuuuuuuuuuuuuuuuuuuuuuuuuuuuuuuuuuuuuuuuuuuuuuuuuuuuuuuuuuuuuuuuuuuuuuuuuuuuuuuuuuuuuuuuuuuuuusSSSSSSSSSSSSSSSSSSSSSSSSSSSSSSSSSSSS5    ",
"IIIII    kzzzxSSSSSSSSSSSSSMzzzzo   .uuuuuuuuuuuuuuuuuuuuuuuuuuuuuuuuuuuuuuuuuuuuuuuuuuuuuuuuuuuuuuuuuuuuuuuuuuuuuuuuuuuuuuuuuuuuuuuuuuuuuuuuuuuuuuuuuuuuuuuuusSSSSSSSSSSSSSSSSSSSSSSSSSSSSSSSSSSSS5    ",
"IIIIIIIII$%%%*ccccVSSSScccch%%%%qwwweuuuuuuuuuuuuuuuuuuuuuuuuuuuuuuuuuuuuuuuuuuuuuuuuuuuuuuuuuuuuuuuuuuuuuuuuuuuuuuuuuuuuuuuuuuuuuuuuuuuuuuuuuuuuuuuuuuuuuuuuuacccccccccccccccccccccccccccccccccccc<    ",
"IIIIIIIII    +zzzzBSSSSzzzzf    tuuuuuuuuuuuuuuuuuuuuuuuuuuuuuuuuuuuuuuuuuuuuuuuuuuuuuuuuuuuuuuuuuuuuuuuuuuuuuuuuuuuuuuuuuuuuuuuuuuuuuuuuuuuuuuuuuuuuuuuuuuuuuazzzzzzzzzzzzzzzzzzzzzzzzzzzzzzzzzzzz,    ",
"IIIIIIIII    OzzzzBSSSSzzzzf    tuuuuuuuuuuuuuuuuuuuuuuuuuuuuuuuuuuuuuuuuuuuuuuuuuuuuuuuuuuuuuuuuuuuuuuuuuuuuuuuuuuuuuuuuuuuuuuuuuuuuuuuuuuuuuuuuuuuuuuuuuuuuuazzzzzzzzzzzzzzzzzzzzzzzzzzzzzzzzzzzz,    ",
"IIIIIIIII    OzzzzBSSSSzzzzf    tuuuuuuuuuuuuuuuuuuuuuuuuuuuuuuuuuuuuuuuuuuuuuuuuuuuuuuuuuuuuuuuuuuuuuuuuuuuuuuuuuuuuuuuuuuuuuuuuuuuuuuuuuuuuuuuuuuuuuuuuuuuuuazzzzzzzzzzzzzzzzzzzzzzzzzzzzzzzzzzzz,    ",
"IIIIIIIII    +llllNSSSSlllld    ryyyyyyyyyyyyyyyyyyyyyyyyyyyyyyyyyyyyyyyyyyyyyyyyyyyyyyyyyyyyyyyyyyyyyyyyyyyyyyyyyyyyyyyyyyyyyyyyyyyyyyyyyyyyyyyyyyyyyyyyyyyyyillllllllllllllllllllllllllllllllllll,    ",
"IIIIIIIIIIIIII    gzzzz                                                                                                                                                                            IIIII",
"IIIIIIIIIIIIII    gzzzz                                                                                                                                                                            IIIII",
"IIIIIIIIIIIIII    gzzzz                                                                                                                                                                            IIIII",
"IIIIIIIIIIIIII    gzzzz                                                                                                                                                                            IIIII",
"IIIIIIIIIIIIIIIIII>3333IIIIIIIIIIIIIIIIIIIIIIIIIIIIIIIIIIIIIIIIIIIIIIIIIIIIIIIIIIIIIIIIIIIIIIIIIIIIIIIIIIIIIIIIIIIIIIIIIIIIIIIIIIIIIIIIIIIIIIIIIIIIIIIIIIIIIIIIIIIIIIIIIIIIIIIIIIIIIIIIIIIIIIIIIIIIIIIII",
"IIIIIIIIIIIIIIIIII     IIIIIIIIIIIIIIIIIIIIIIIIIIIIIIIIIIIIIIIIIIIIIIIIIIIIIIIIIIIIIIIIIIIIIIIIIIIIIIIIIIIIIIIIIIIIIIIIIIIIIIIIIIIIIIIIIIIIIIIIIIIIIIIIIIIIIIIIIIIIIIIIIIIIIIIIIIIIIIIIIIIIIIIIIIIIIIIII",
"IIIIIIIIIIIIIIIIII     IIIIIIIIIIIIIIIIIIIIIIIIIIIIIIIIIIIIIIIIIIIIIIIIIIIIIIIIIIIIIIIIIIIIIIIIIIIIIIIIIIIIIIIIIIIIIIIIIIIIIIIIIIIIIIIIIIIIIIIIIIIIIIIIIIIIIIIIIIIIIIIIIIIIIIIIIIIIIIIIIIIIIIIIIIIIIIIII",
"IIIIIIIIIIIIIIIIII     IIIIIIIIIIIIIIIIIIIIIIIIIIIIIIIIIIIIIIIIIIIIIIIIIIIIIIIIIIIIIIIIIIIIIIIIIIIIIIIIIIIIIIIIIIIIIIIIIIIIIIIIIIIIIIIIIIIIIIIIIIIIIIIIIIIIIIIIIIIIIIIIIIIIIIIIIIIIIIIIIIIIIIIIIIIIIIIII",
"IIIIIIIIIIIIIIIIII     IIIIIIIIIIIIIIIIIIIIIIIIIIIIIIIIIIIIIIIIIIIIIIIIIIIIIIIIIIIIIIIIIIIIIIIIIIIIIIIIIIIIIIIIIIIIIIIIIIIIIIIIIIIIIIIIIIIIIIIIIIIIIIIIIIIIIIIIIIIIIIIIIIIIIIIIIIIIIIIIIIIIIIIIIIIIIIIII"
};
