/* XPM */
static char *result[] = {
/* columns rows colors chars-per-pixel */
"200 41 73 1 ",
"  c black",
". c #060606",
"X c #070707",
"o c #080302",
"O c #0A0403",
"+ c #1F0C09",
"@ c #200C0A",
"# c #200E0A",
"$ c #210D0C",
"% c #2A100D",
"& c #2B100D",
"* c #31130F",
"= c #32130F",
"- c #351511",
"; c #381612",
": c #3D1713",
"> c gray23",
", c #3C3C3C",
"< c #3E3E3E",
"1 c #4C1F19",
"2 c #4D1F19",
"3 c #51211B",
"4 c #52211B",
"5 c #57231D",
"6 c #5D261F",
"7 c #5E261F",
"8 c #65261F",
"9 c #403F3F",
"0 c #662720",
"q c #642921",
"w c #6C2922",
"e c #732E26",
"r c #7F3128",
"t c #434343",
"y c #444444",
"u c gray31",
"i c #505050",
"p c #535353",
"a c gray33",
"s c #92382D",
"d c #993A2F",
"f c #8D3F36",
"g c #8E3F36",
"h c #9B3B30",
"j c #A23E32",
"k c #A0473D",
"l c #B04437",
"z c #D95848",
"x c #DD5848",
"c c #E05949",
"v c #E15A49",
"b c #E75C4B",
"n c #EB5F4D",
"m c #EB5F4E",
"M c #EC5F4E",
"N c #DE6253",
"B c #EE604E",
"V c #E16454",
"C c #F76451",
"Z c #FC6653",
"A c #FD6653",
"S c #FE6654",
"D c #FF6754",
"F c #FF6D5A",
"G c #FF6E5B",
"H c #FF6E5C",
"J c #FF8C7C",
"K c #FD9485",
"L c #FF9586",
"P c #FFD3C9",
"I c #FFEDE6",
"U c #FFEFE8",
"Y c None",
/* pixels */
"YYYYY         YYYYYYYYYYYYYY         YYYYYYYYYYYYYYYYYYYYYYYYYYYYYYYYYYYYYYYYYYYYYYYYYYYYYYYYYYYYYYYYYYYYYYYYYYYYYYYYYYYYYYYYYYYYYYYYYYYYYYYYYYYYYYYYYYYYYYYYYYYYYYYYYYYYYYYYYYYYYYYYYYYYYYYYYYYYYYYYYYY",
"YYYYY         YYYYYYYYYYYYYY         YYYYYYYYYYYYYYYYYYYYYYYYYYYYYYYYYYYYYYYYYYYYYYYYYYYYYYYYYYYYYYYYYYYYYYYYYYYYYYYYYYYYYYYYYYYYYYYYYYYYYYYYYYYYYYYYYYYYYYYYYYYYYYYYYYYYYYYYYYYYYYYYYYYYYYYYYYYYYYYYYYY",
"YYYYY         YYYYYYYYYYYYYY         YYYYYYYYYYYYYYYYYYYYYYYYYYYYYYYYYYYYYYYYYYYYYYYYYYYYYYYYYYYYYYYYYYYYYYYYYYYYYYYYYYYYYYYYYYYYYYYYYYYYYYYYYYYYYYYYYYYYYYYYYYYYYYYYYYYYYYYYYYYYYYYYYYYYYYYYYYYYYYYYYYY",
"YYYYY         YYYYYYYYYYYYYY         YYYYYYYYYYYYYYYYYYYYYYYYYYYYYYYYYYYYYYYYYYYYYYYYYYYYYYYYYYYYYYYYYYYYYYYYYYYYYYYYYYYYYYYYYYYYYYYYYYYYYYYYYYYYYYYYYYYYYYYYYYYYYYYYYYYYYYYYYYYYYYYYYYYYYYYYYYYYYYYYYYY",
"YYYY#qqqqqqqq7YYYYYYYYYYYYY$qqqqqqqq6YYYYYYYYYYYYYYYYYYYYYYYYYYYYYYYYYYYYYYYYYYYYYYYYYYYYYYYYYYYYYYYYYYYYYYYYYYYYYYYYYYYYYYYYYYYYYYYYYYYYYYYYYYYYYYYYYYYYYYYYYYYYYYYYYYYYYYYYYYYYYYYYYYYYYYYYYYYYYYYYYYY",
"    4DDDDDDDDB    YYYYY    5DDDDDDDDm                                                                                                                                                              YYYYY",
"    4DDDDDDDDB    YYYYY    5DDDDDDDDM                                                                                                                                                              YYYYY",
"    4DDDDDDDDB    YYYYY    5DDDDDDDDM                                                                                                                                                              YYYYY",
"    4DDDDDDDDB    YYYYY    5DDDDDDDDM                                                                                                                                                              YYYYY",
"    4DDDDDDDDDZZZZ1    ZZZZKIIIIHDDDm    >pppppppppppppppppppppppppppppppppppppppppppppppppppppppppppppppppppppppppppppppppppppppNZZZZZZZZZZZZZZZZZZZZZZZZZZZZZZZZZZZZZZZZZZZZZZZZZZZZZZZZZZZZZZZZZ3    ",
"    4DDDDDDDDDDDDD2    DDDDLUUUUGDDDM    ,aaaaaaaaaaaaaaaaaaaaaaaaaaaaaaaaaaaaaaaaaaaaaaaaaaaaaaaaaaaaaaaaaaaaaaaaaaaaaaaaaaaaaaaVDDDDDDDDDDDDDDDDDDDDDDDDDDDDDDDDDDDDDDDDDDDDDDDDDDDDDDDDDDDDDDDDD4    ",
"    4DDDDDDDDDDDDD2    DDDDLUUUUGDDDM    ,aaaaaaaaaaaaaaaaaaaaaaaaaaaaaaaaaaaaaaaaaaaaaaaaaaaaaaaaaaaaaaaaaaaaaaaaaaaaaaaaaaaaaaaVDDDDDDDDDDDDDDDDDDDDDDDDDDDDDDDDDDDDDDDDDDDDDDDDDDDDDDDDDDDDDDDDD4    ",
"    4DDDDDDDDDDDDD2    DDDDLUUUUHDDDm    ,aaaaaaaaaaaaaaaaaaaaaaaaaaaaaaaaaaaaaaaaaaaaaaaaaaaaaaaaaaaaaaaaaaaaaaaaaaaaaaaaaaaaaaaVDDDDDDDDDDDDDDDDDDDDDDDDDDDDDDDDDDDDDDDDDDDDDDDDDDDDDDDDDDDDDDDDD4    ",
"    4DDDDDDDDDDDDDe----DDDDJPPPPFDDDm    ,aaaaaaaaaaaaaaaaaaaaaaaaaaaaaaaaaaaaaaaaaaaaaaaaaaaaaaaaaaaaaaaaaaaaaaaaaaaaaaaaaaaaaaaVDDDDDDDDDDDDDDDDDDDDDDDDDDDDDDDDDDDDDDDDDDDDDDDDDDDDDDDDDDDDDDDDD4    ",
"    4DDDDDDDDDDDDDDDDDDDDDDDDDDDDDDDM    ,aaaaaaaaaaaaaaaaaaaaaaaaaaaaaaaaaaaaaaaaaaaaaaaaaaaaaaaaaaaaaaaaaaaaaaaaaaaaaaaaaaaaaaaVDDDDDDDDDDDDDDDDDDDDDDDDDDDDDDDDDDDDDDDDDDDDDDDDDDDDDDDDDDDDDDDDD4    ",
"    4DDDDDDDDDDDDDDDDDDDDDDDDDDDDDDDM    ,aaaaaaaaaaaaaaaaaaaaaaaaaaaaaaaaaaaaaaaaaaaaaaaaaaaaaaaaaaaaaaaaaaaaaaaaaaaaaaaaaaaaaaaVDDDDDDDDDDDDDDDDDDDDDDDDDDDDDDDDDDDDDDDDDDDDDDDDDDDDDDDDDDDDDDDDD4    ",
"    4DDDDDDDDDDDDDDDDDDDDDDDDDDDDDDDm    ,aaaaaaaaaaaaaaaaaaaaaaaaaaaaaaaaaaaaaaaaaaaaaaaaaaaaaaaaaaaaaaaaaaaaaaaaaaaaaaaaaaaaaaaVDDDDDDDDDDDDDDDDDDDDDDDDDDDDDDDDDDDDDDDDDDDDDDDDDDDDDDDDDDDDDDDDD4    ",
"    4DDDDDDDDDDDDDDDDDDDDDDDDDDDDDDDM    ,aaaaaaaaaaaaaaaaaaaaaaaaaaaaaaaaaaaaaaaaaaaaaaaaaaaaaaaaaaaaaaaaaaaaaaaaaaaaaaaaaaaaaaaVDDDDDDDDDDDDDDDDDDDDDDDDDDDDDDDDDDDDDDDDDDDDDDDDDDDDDDDDDDDDDDDDD4    ",
"    4DDDDDDDDDDDDDDDDDDDDDDDDDDDDDDDM    ,aaaaaaaaaaaaaaaaaaaaaaaaaaaaaaaaaaaaaaaaaaaaaaaaaaaaaaaaaaaaaaaaaaaaaaaaaaaaaaaaaaaaaaaVDDDDDDDDDDDDDDDDDDDDDDDDDDDDDDDDDDDDDDDDDDDDDDDDDDDDDDDDDDDDDDDDD4    ",
"    4DDDDDDDDDDDDDDDDDDDDDDDDDDDDDDDM    ,aaaaaaaaaaaaaaaaaaaaaaaaaaaaaaaaaaaaaaaaaaaaaaaaaaaaaaaaaaaaaaaaaaaaaaaaaaaaaaaaaaaaaaaVDDDDDDDDDDDDDDDDDDDDDDDDDDDDDDDDDDDDDDDDDDDDDDDDDDDDDDDDDDDDDDDDD4    ",
"    4DDDDDDDDDDDDDDDDDDDDDDDDDDDDDDDm    ,aaaaaaaaaaaaaaaaaaaaaaaaaaaaaaaaaaaaaaaaaaaaaaaaaaaaaaaaaaaaaaaaaaaaaaaaaaaaaaaaaaaaaaaVDDDDDDDDDDDDDDDDDDDDDDDDDDDDDDDDDDDDDDDDDDDDDDDDDDDDDDDDDDDDDDDDD4    ",
"    4DDDDDDDDDDDDDDDDDDDDDDDDDDDDDDDM    ,aaaaaaaaaaaaaaaaaaaaaaaaaaaaaaaaaaaaaaaaaaaaaaaaaaaaaaaaaaaaaaaaaaaaaaaaaaaaaaaaaaaaaaaVDDDDDDDDDDDDDDDDDDDDDDDDDDDDDDDDDDDDDDDDDDDDDDDDDDDDDDDDDDDDDDDDD4    ",
"    1mnnmCCCCCDDDDDDDDDDDDDACCCCMnnmz.X..<aaaaaaaaaaaaaaaaaaaaaaaaaaaaaaaaaaaaaaaaaaaaaaaaaaaaaaaaaaaaaaaaaaaaaaaaaaaaaaaaaaaaaaaVDDDDDDDDDDDDDDDDDDDDDDDDDDDDDDDDDDDDDDDDDDDDDDDDDDDDDDDDDDDDDDDDD4    ",
"YYYYY    shhhjDDDDDDDDDDDDDxhhhho   .aaaaaaaaaaaaaaaaaaaaaaaaaaaaaaaaaaaaaaaaaaaaaaaaaaaaaaaaaaaaaaaaaaaaaaaaaaaaaaaaaaaaaaaaaaaaVDDDDDDDDDDDDDDDDDDDDDDDDDDDDDDDDDDDDDDDDDDDDDDDDDDDDDDDDDDDDDDDDD4    ",
"YYYYY    shhhjDDDDDDDDDDDDDxhhhho   .aaaaaaaaaaaaaaaaaaaaaaaaaaaaaaaaaaaaaaaaaaaaaaaaaaaaaaaaaaaaaaaaaaaaaaaaaaaaaaaaaaaaaaaaaaaaVDDDDDDDDDDDDDDDDDDDDDDDDDDDDDDDDDDDDDDDDDDDDDDDDDDDDDDDDDDDDDDDDD4    ",
"YYYYY    shhhjDDDDDDDDDDDDDxhhhho   .aaaaaaaaaaaaaaaaaaaaaaaaaaaaaaaaaaaaaaaaaaaaaaaaaaaaaaaaaaaaaaaaaaaaaaaaaaaaaaaaaaaaaaaaaaaaVDDDDDDDDDDDDDDDDDDDDDDDDDDDDDDDDDDDDDDDDDDDDDDDDDDDDDDDDDDDDDDDDD4    ",
"YYYYY    shhhjDDDDDDDDDDDDDxhhhho   .aaaaaaaaaaaaaaaaaaaaaaaaaaaaaaaaaaaaaaaaaaaaaaaaaaaaaaaaaaaaaaaaaaaaaaaaaaaaaaaaaaaaaaaaaaaaVDDDDDDDDDDDDDDDDDDDDDDDDDDDDDDDDDDDDDDDDDDDDDDDDDDDDDDDDDDDDDDDDD4    ",
"YYYYYYYYY+@@@%llllbDDDDllllr@@@@9tttyaaaaaaaaaaaaaaaaaaaaaaaaaaaaaaaaaaaaaaaaaaaaaaaaaaaaaaaaaaaaaaaaaaaaaaaaaaaaaaaaaaaaaaaaaaaaklllllllllllllllllllllllllllllllllllllllllllllllllllllllllllllllll;    ",
"YYYYYYYYY    OhhhhvDDDDhhhh0    iaaaaaaaaaaaaaaaaaaaaaaaaaaaaaaaaaaaaaaaaaaaaaaaaaaaaaaaaaaaaaaaaaaaaaaaaaaaaaaaaaaaaaaaaaaaaaaaaghhhhhhhhhhhhhhhhhhhhhhhhhhhhhhhhhhhhhhhhhhhhhhhhhhhhhhhhhhhhhhhhh=    ",
"YYYYYYYYY    OhhhhvDDDDhhhh0    iaaaaaaaaaaaaaaaaaaaaaaaaaaaaaaaaaaaaaaaaaaaaaaaaaaaaaaaaaaaaaaaaaaaaaaaaaaaaaaaaaaaaaaaaaaaaaaaaghhhhhhhhhhhhhhhhhhhhhhhhhhhhhhhhhhhhhhhhhhhhhhhhhhhhhhhhhhhhhhhhh=    ",
"YYYYYYYYY    OhhhhvDDDDhhhh0    iaaaaaaaaaaaaaaaaaaaaaaaaaaaaaaaaaaaaaaaaaaaaaaaaaaaaaaaaaaaaaaaaaaaaaaaaaaaaaaaaaaaaaaaaaaaaaaaaghhhhhhhhhhhhhhhhhhhhhhhhhhhhhhhhhhhhhhhhhhhhhhhhhhhhhhhhhhhhhhhhh=    ",
"YYYYYYYYY    OddddcSSSSdddd8    uppppppppppppppppppppppppppppppppppppppppppppppppppppppppppppppppppppppppppppppppppppppppppppppppfddddddddddddddddddddddddddddddddddddddddddddddddddddddddddddddddd*    ",
"YYYYYYYYYYYYYY    whhhh                                                                                                                                                                            YYYYY",
"YYYYYYYYYYYYYY    whhhh                                                                                                                                                                            YYYYY",
"YYYYYYYYYYYYYY    whhhh                                                                                                                                                                            YYYYY",
"YYYYYYYYYYYYYY    whhhh                                                                                                                                                                            YYYYY",
"YYYYYYYYYYYYYYYYYY&::::YYYYYYYYYYYYYYYYYYYYYYYYYYYYYYYYYYYYYYYYYYYYYYYYYYYYYYYYYYYYYYYYYYYYYYYYYYYYYYYYYYYYYYYYYYYYYYYYYYYYYYYYYYYYYYYYYYYYYYYYYYYYYYYYYYYYYYYYYYYYYYYYYYYYYYYYYYYYYYYYYYYYYYYYYYYYYYYYY",
"YYYYYYYYYYYYYYYYYY     YYYYYYYYYYYYYYYYYYYYYYYYYYYYYYYYYYYYYYYYYYYYYYYYYYYYYYYYYYYYYYYYYYYYYYYYYYYYYYYYYYYYYYYYYYYYYYYYYYYYYYYYYYYYYYYYYYYYYYYYYYYYYYYYYYYYYYYYYYYYYYYYYYYYYYYYYYYYYYYYYYYYYYYYYYYYYYYYY",
"YYYYYYYYYYYYYYYYYY     YYYYYYYYYYYYYYYYYYYYYYYYYYYYYYYYYYYYYYYYYYYYYYYYYYYYYYYYYYYYYYYYYYYYYYYYYYYYYYYYYYYYYYYYYYYYYYYYYYYYYYYYYYYYYYYYYYYYYYYYYYYYYYYYYYYYYYYYYYYYYYYYYYYYYYYYYYYYYYYYYYYYYYYYYYYYYYYYY",
"YYYYYYYYYYYYYYYYYY     YYYYYYYYYYYYYYYYYYYYYYYYYYYYYYYYYYYYYYYYYYYYYYYYYYYYYYYYYYYYYYYYYYYYYYYYYYYYYYYYYYYYYYYYYYYYYYYYYYYYYYYYYYYYYYYYYYYYYYYYYYYYYYYYYYYYYYYYYYYYYYYYYYYYYYYYYYYYYYYYYYYYYYYYYYYYYYYYY",
"YYYYYYYYYYYYYYYYYY     YYYYYYYYYYYYYYYYYYYYYYYYYYYYYYYYYYYYYYYYYYYYYYYYYYYYYYYYYYYYYYYYYYYYYYYYYYYYYYYYYYYYYYYYYYYYYYYYYYYYYYYYYYYYYYYYYYYYYYYYYYYYYYYYYYYYYYYYYYYYYYYYYYYYYYYYYYYYYYYYYYYYYYYYYYYYYYYYY"
};
